<?xml version="1.0" encoding="UTF-8" standalone="no"?>
<!-- Created with Inkscape (http://www.inkscape.org/) -->

<svg
   xmlns:dc="http://purl.org/dc/elements/1.1/"
   xmlns:cc="http://creativecommons.org/ns#"
   xmlns:rdf="http://www.w3.org/1999/02/22-rdf-syntax-ns#"
   xmlns:svg="http://www.w3.org/2000/svg"
   xmlns="http://www.w3.org/2000/svg"
   xmlns:sodipodi="http://sodipodi.sourceforge.net/DTD/sodipodi-0.dtd"
   xmlns:inkscape="http://www.inkscape.org/namespaces/inkscape"
   width="355.33362"
   height="60"
   id="svg3025"
   version="1.1"
   inkscape:version="0.48.4 r9939"
   sodipodi:docname="ac-logo.svg">
  <defs
     id="defs3027">
    <clipPath
       clipPathUnits="userSpaceOnUse"
       id="clipPath18">
      <path
         inkscape:connector-curvature="0"
         d="m 0,153.07 266.456,0 L 266.456,0 0,0 0,153.07 z"
         id="path20" />
    </clipPath>
  </defs>
  <sodipodi:namedview
     id="base"
     pagecolor="#ffffff"
     bordercolor="#666666"
     borderopacity="1.0"
     inkscape:pageopacity="0.0"
     inkscape:pageshadow="2"
     inkscape:zoom="1"
     inkscape:cx="197.24303"
     inkscape:cy="-32.392947"
     inkscape:current-layer="layer1"
     showgrid="true"
     inkscape:grid-bbox="true"
     inkscape:document-units="px"
     inkscape:window-width="500"
     inkscape:window-height="445"
     inkscape:window-x="540"
     inkscape:window-y="282"
     inkscape:window-maximized="0"
     objecttolerance="10000"
     guidetolerance="10000"
     showguides="false"
     fit-margin-top="0"
     fit-margin-left="0"
     fit-margin-right="0"
     fit-margin-bottom="0">
    <sodipodi:guide
       position="-0.20099986,1.0626442"
       orientation="0,400"
       id="guide3770" />
    <sodipodi:guide
       position="399.799,1.0626442"
       orientation="-400,0"
       id="guide3772" />
    <sodipodi:guide
       position="399.799,401.06264"
       orientation="0,-400"
       id="guide3774" />
    <sodipodi:guide
       position="-0.20099986,401.06264"
       orientation="400,0"
       id="guide3776" />
  </sodipodi:namedview>
  <metadata
     id="metadata3030">
    <rdf:RDF>
      <cc:Work
         rdf:about="">
        <dc:format>image/svg+xml</dc:format>
        <dc:type
           rdf:resource="http://purl.org/dc/dcmitype/StillImage" />
        <dc:title></dc:title>
      </cc:Work>
    </rdf:RDF>
  </metadata>
  <g
     id="layer1"
     inkscape:label="Layer 1"
     inkscape:groupmode="layer"
     transform="translate(-0.20099986,10.937357)">
    <rect
       style="fill:#232323;fill-opacity:1;fill-rule:evenodd;stroke:#cadcff;stroke-width:0;stroke-linecap:square;stroke-linejoin:miter;stroke-miterlimit:4;stroke-opacity:0;stroke-dasharray:none"
       id="rect3833"
       width="0.2857143"
       height="0.5714286"
       x="8.8571424"
       y="-11" />
    <g
       transform="matrix(2.1250664,0,0,-2.1250664,-105.24777,181.7048)"
       id="g14"
       style="fill:#40bcd8;fill-opacity:1">
      <g
         id="g16"
         clip-path="url(#clipPath18)"
         style="fill:#40bcd8;fill-opacity:1">
        <g
           id="g22"
           transform="translate(124.0479,90.332)"
           style="fill:#40bcd8;fill-opacity:1">
          <path
             inkscape:connector-curvature="0"
             d="m 0,0 0,-11.873 0,-1.539 c -0.105,0.176 -0.208,0.351 -0.319,0.529 L -8.48,0 l -6.397,0 0.073,-27.479 6.792,0 0,11.981 c 0,0.648 0,1.273 -0.01,1.869 0.209,-0.33 0.422,-0.67 0.64,-1.016 l 8.051,-12.834 6.117,0 L 6.786,0 0,0 z"
             style="fill:#40bcd8;fill-opacity:1;fill-rule:nonzero;stroke:none"
             id="path24" />
        </g>
        <g
           id="g26"
           transform="translate(188.25,69.748)"
           style="fill:#40bcd8;fill-opacity:1">
          <path
             inkscape:connector-curvature="0"
             d="m 0,0 -3.041,0 0,13.727 3.066,0 C 3.762,13.674 6.77,10.625 6.77,6.857 6.77,3.09 3.748,0.037 0,0 m 13.611,6.857 c 0,7.491 -5.968,13.577 -13.402,13.725 l 0,0.01 -3.25,0 -3.332,0 -3.248,0 0,-27.465 3.248,0 3.332,0 3.25,0 0,0.01 c 7.434,0.154 13.402,6.238 13.402,13.72"
             style="fill:#40bcd8;fill-opacity:1;fill-rule:nonzero;stroke:none"
             id="path28" />
        </g>
        <g
           id="g30"
           transform="translate(165.7246,69.4863)"
           style="fill:#40bcd8;fill-opacity:1">
          <path
             inkscape:connector-curvature="0"
             d="m 0,0 c -3.883,0 -7.039,3.15 -7.039,7.051 0,3.896 3.156,7.064 7.039,7.064 3.893,0 7.035,-3.168 7.035,-7.064 C 7.035,3.15 3.893,0 0,0 m 0,21.166 c -7.771,0 -14.066,-6.318 -14.066,-14.115 0,-7.793 6.295,-14.11 14.066,-14.11 7.768,0 14.074,6.317 14.074,14.11 0,7.797 -6.306,14.115 -14.074,14.115"
             style="fill:#40bcd8;fill-opacity:1;fill-rule:nonzero;stroke:none"
             id="path32" />
        </g>
        <g
           id="g34"
           transform="translate(216.832,68.9727)"
           style="fill:#40bcd8;fill-opacity:1">
          <path
             inkscape:connector-curvature="0"
             d="m 0,0 -9.664,0 0,5.137 9.293,0 0,6.062 -9.293,0 0,4.072 9.664,0 0,6.096 -16.303,0 0,-27.465 L 0,-6.098 0,0 z"
             style="fill:#40bcd8;fill-opacity:1;fill-rule:nonzero;stroke:none"
             id="path36" />
        </g>
        <g
           id="g38"
           transform="translate(63.7324,76.7832)"
           style="fill:#40bcd8;fill-opacity:1">
          <path
             inkscape:connector-curvature="0"
             d="m 0,0 -0.04,0 -0.012,0 -0.012,0 -0.04,0 c -0.769,-0.004 -1.521,-0.072 -2.25,-0.197 l 2.302,6.674 2.303,-6.674 C 1.521,-0.072 0.771,-0.004 0,0 m 4.541,13.564 c 0,0.004 -2.287,0.002 -4.593,0 -2.305,0.002 -4.593,0.004 -4.593,0 -0.114,-0.326 -9.466,-27.49 -9.466,-27.49 0,0 3.133,-0.045 3.833,0.016 2.124,0.176 3.348,0.947 4.168,2.558 0.316,0.623 1.2,4.582 6.058,4.571 4.859,0.011 5.743,-3.948 6.059,-4.571 0.819,-1.611 2.045,-2.382 4.168,-2.558 0.699,-0.061 3.833,-0.016 3.833,-0.016 0,0 -9.353,27.164 -9.467,27.49"
             style="fill:#40bcd8;fill-opacity:1;fill-rule:nonzero;stroke:none"
             id="path40" />
        </g>
        <g
           id="g42"
           transform="translate(109.374,90.3066)"
           style="fill:#40bcd8;fill-opacity:1">
          <path
             inkscape:connector-curvature="0"
             d="m 0,0 -5.341,0 -4.88,-10.334 c -0.009,0.012 -0.022,0.049 -0.031,0.076 l 0.022,0.004 -4.937,10.279 -3.861,0 -6.368,0 c -6.208,0.039 -10.729,-3.308 -10.759,-7.966 -0.037,-5.592 6.295,-7.625 8.359,-8.293 3.525,-1.157 3.807,-2.065 3.8,-3.041 -0.013,-2.063 -2.602,-2.274 -3.707,-2.266 l -0.006,0 -6.87,-0.008 0.459,-5.906 6.411,0 0,0.004 c 7.675,0.053 11.141,4.215 11.169,8.377 0.032,5.08 -4.295,7.201 -8.061,8.486 -3.821,1.305 -4.106,2.012 -4.1,2.945 0.005,0.87 1,1.872 3.305,1.856 l 5.992,0 c 2.608,-5.449 5.804,-12.631 5.804,-15.174 l 0,-6.504 6.759,0 0,6.504 c 0,2.094 2.124,7.285 4.309,12.066 L 0,-3.566 0,0 z"
             style="fill:#40bcd8;fill-opacity:1;fill-rule:nonzero;stroke:none"
             id="path44" />
        </g>
        <g
           id="g46"
           transform="translate(151.6621,76.5391)"
           style="fill:#40bcd8;fill-opacity:1">
          <path
             inkscape:connector-curvature="0"
             d="m 0,0 c -0.004,-4.895 -3.865,-7.027 -7.77,-7.027 -3.841,0 -6.962,3.14 -6.962,7.027 l 0.011,0 c 0,3.887 3.11,7.025 6.957,7.025 2.168,0 3.737,-0.531 5.473,-2.037 l 3.287,5.93 c -2.392,1.961 -5.437,3.143 -8.76,3.143 -7.683,0 -13.922,-6.297 -13.922,-14.061 0,-7.766 6.198,-13.885 13.332,-14.111 C 1.164,-14.412 6.965,-8.021 6.965,0 L 0,0 z"
             style="fill:#40bcd8;fill-opacity:1;fill-rule:nonzero;stroke:none"
             id="path48" />
        </g>
      </g>
    </g>
  </g>
</svg>
